<svg xmlns="http://www.w3.org/2000/svg" xmlns:xlink="http://www.w3.org/1999/xlink" width="1119" height="1945" viewBox="0 0 1119 1945">
  <defs>
    <clipPath id="clip-path">
      <rect id="Background" width="1113" height="929" fill="#060039"/>
    </clipPath>
    <clipPath id="clip-path-2">
      <rect id="Background-2" data-name="Background" width="1113" height="1030" fill="#060039"/>
    </clipPath>
    <clipPath id="clip-habacode_bg">
      <rect width="1119" height="1945"/>
    </clipPath>
  </defs>
  <g id="habacode_bg" data-name="habacode –bg" clip-path="url(#clip-habacode_bg)">
    <rect id="Background-3" data-name="Background" width="1119" height="1948" fill="#060039"/>
    <g id="Group_41" data-name="Group 41" transform="translate(0 3)">
      <g id="Mask_Group_8" data-name="Mask Group 8" clip-path="url(#clip-path)">
        <g id="Taieri" transform="translate(-12.456 -84.744)">
          <path id="Shape" d="M81.8,0A40.9,40.9,0,1,1,0,0" transform="translate(1056.299 710.601)" fill="none" stroke="#20e09c" stroke-linecap="round" stroke-linejoin="round" stroke-miterlimit="10" stroke-width="10.947"/>
          <path id="Shape-2" data-name="Shape" d="M51.215,103.14A51.571,51.571,0,0,1,51.215,0" transform="translate(1086.886 7.113)" fill="none" stroke="#fb4376" stroke-linecap="round" stroke-linejoin="round" stroke-miterlimit="10" stroke-width="10.947"/>
          <path id="Shape-3" data-name="Shape" d="M0,48.3a42.679,42.679,0,0,0,85.358,0V0" transform="translate(399.758 0.711)" fill="none" stroke="#20e09c" stroke-linecap="round" stroke-linejoin="round" stroke-miterlimit="10" stroke-width="10.947"/>
          <path id="Shape-4" data-name="Shape" d="M96.194,191.343C43.068,191.343,0,148.513,0,95.672S43.068,0,96.194,0H184.23" transform="translate(1.423 813.03)" fill="none" stroke="#fec53d" stroke-linecap="round" stroke-linejoin="round" stroke-miterlimit="10" stroke-width="10.947"/>
          <path id="Shape-5" data-name="Shape" d="M31.995,61.884C14.324,61.884,0,48.032,0,30.942S14.324,0,31.995,0H66.152" transform="translate(59.75 877.048)" fill="none" stroke="#20e09c" stroke-linecap="round" stroke-linejoin="round" stroke-miterlimit="10" stroke-width="10.947"/>
          <path id="Shape-6" data-name="Shape" d="M189.209,0H49.527C22.174,0,0,21.656,0,48.369" transform="translate(0 0.711)" fill="none" stroke="#20e09c" stroke-linecap="round" stroke-linejoin="round" stroke-miterlimit="10" stroke-width="10.947"/>
          <path id="Shape-7" data-name="Shape" d="M-287.153,0h179.067A63.4,63.4,0,0,1-44.6,63.307" transform="translate(1082.4 2.134)" fill="none" stroke="#2ecfca" stroke-linecap="round" stroke-linejoin="round" stroke-miterlimit="10" stroke-width="10.947"/>
          <path id="Shape-8" data-name="Shape" d="M85.358,162.138V42.41A42.679,42.679,0,1,0,0,42.41V60.942" transform="translate(1052.743 166.489)" fill="none" stroke="#fe885d" stroke-linecap="round" stroke-linejoin="round" stroke-miterlimit="10" stroke-width="10.947"/>
          <circle id="Shape-9" data-name="Shape" cx="28.453" cy="28.453" r="28.453" transform="translate(389.799 251.093)" fill="none" stroke="#20e09c" stroke-linecap="round" stroke-linejoin="round" stroke-miterlimit="10" stroke-width="10.947"/>
          <ellipse id="Shape-10" data-name="Shape" cx="41.256" cy="40.9" rx="41.256" ry="40.9" transform="translate(455.24 809.474)" fill="none" stroke="#fb4376" stroke-linecap="round" stroke-linejoin="round" stroke-miterlimit="10" stroke-width="10.947"/>
          <circle id="Shape-11" data-name="Shape" cx="44.813" cy="44.813" r="44.813" transform="translate(86.069 137.995)" fill="none" stroke="#20e09c" stroke-linecap="round" stroke-linejoin="round" stroke-miterlimit="10" stroke-width="10.947"/>
          <path id="Shape-12" data-name="Shape" d="M99.939,197.034c55.2,0,99.939-44.107,99.939-98.517S155.137,0,99.939,0,0,44.107,0,98.517" transform="translate(31.298 83.224)" fill="none" stroke="#fec53d" stroke-linecap="round" stroke-linejoin="round" stroke-miterlimit="10" stroke-width="10.947"/>
          <path id="Shape-13" data-name="Shape" d="M3.706,75.724C-11.478,132.5,21.369,190.641,77.068,205.6s113.17-18.956,128.351-75.728S187.757,14.954,132.058,0" transform="translate(928.974 795.247)" fill="none" stroke="#20e09c" stroke-linecap="round" stroke-linejoin="round" stroke-miterlimit="10" stroke-width="10.947"/>
          <path id="Shape-14" data-name="Shape" d="M40.9,0A40.9,40.9,0,1,0,81.8,40.9V0" transform="translate(192.766 294.483)" fill="none" stroke="#20e09c" stroke-linecap="round" stroke-linejoin="round" stroke-miterlimit="10" stroke-width="10.947"/>
          <path id="Shape-15" data-name="Shape" d="M0,54.415A54.061,54.061,0,1,0,54.06,0H0" transform="translate(246.114 0.711)" fill="none" stroke="#fb4376" stroke-linecap="round" stroke-linejoin="round" stroke-miterlimit="10" stroke-width="10.947"/>
          <path id="Shape-16" data-name="Shape" d="M47.3,93.6C21.178,93.6,0,72.644,0,46.8S21.178,0,47.3,0,94.6,20.952,94.6,46.8V189.92" transform="translate(3.557 522.815)" fill="none" stroke="#20e09c" stroke-linecap="round" stroke-linejoin="round" stroke-miterlimit="10" stroke-width="10.947"/>
          <path id="Shape-17" data-name="Shape" d="M100.287,43.39c0,23.963,19.114,43.39,42.687,43.39s42.679-19.427,42.679-43.39S166.547,0,142.974,0H0" transform="translate(939.644 575.452)" fill="none" stroke="#20e09c" stroke-linecap="round" stroke-linejoin="round" stroke-miterlimit="10" stroke-width="10.947"/>
          <path id="Shape-18" data-name="Shape" d="M45.524,99.435C20.382,99.435,0,119.532,0,144.319s20.382,44.89,45.524,44.89,45.524-20.1,45.524-44.884V0" transform="translate(641.604)" fill="none" stroke="#2ecfca" stroke-linecap="round" stroke-linejoin="round" stroke-miterlimit="10" stroke-width="10.947"/>
          <path id="Shape-19" data-name="Shape" d="M24.127,41.256A40.931,40.931,0,1,1,65.056,82.512H0" transform="translate(626.666 921.861)" fill="none" stroke="#20e09c" stroke-linecap="round" stroke-linejoin="round" stroke-miterlimit="10" stroke-width="10.947"/>
          <path id="Shape-20" data-name="Shape" d="M40.9,111.376A40.7,40.7,0,1,1,0,152.071V0" transform="translate(734.075 288.793)" fill="none" stroke="#fe885d" stroke-linecap="round" stroke-linejoin="round" stroke-miterlimit="10" stroke-width="10.947"/>
          <path id="Shape-21" data-name="Shape" d="M40.9,124.272c-22.588,0-40.9,18.04-40.9,40.293s18.312,40.293,40.9,40.293,40.9-18.04,40.9-40.293V0" transform="translate(3.557 280.257)" fill="none" stroke="#fe885d" stroke-linecap="round" stroke-linejoin="round" stroke-miterlimit="10" stroke-width="10.947"/>
          <path id="Shape-22" data-name="Shape" d="M144.183,73.265C144.183,32.8,111.906,0,72.09,0S0,32.8,0,73.265,32.277,146.53,72.093,146.53H261.052" transform="translate(345.698 206.992)" fill="none" stroke="#fec53d" stroke-linecap="round" stroke-linejoin="round" stroke-miterlimit="10" stroke-width="10.947"/>
          <path id="Shape-23" data-name="Shape" d="M188.955,146.53c39.824,0,72.1-32.8,72.1-73.265S228.779,0,188.955,0H0" transform="translate(877.048 370.594)" fill="none" stroke="#20e09c" stroke-linecap="round" stroke-linejoin="round" stroke-miterlimit="10" stroke-width="10.947"/>
          <path id="Shape-24" data-name="Shape" d="M0,68.642C0,30.729,30.4,0,67.9,0h69.763c37.5,0,67.9,30.729,67.9,68.642h0c0,37.913-30.4,68.642-67.9,68.642H67.9C30.4,137.283,0,106.555,0,68.642Z" transform="translate(787.423 56.194)" fill="none" stroke="#fe885d" stroke-linecap="round" stroke-linejoin="round" stroke-miterlimit="10" stroke-width="10.947"/>
          <path id="Shape-25" data-name="Shape" d="M42.323,204.858A42.288,42.288,0,0,1,0,162.606V42.252A42.288,42.288,0,0,1,42.323,0h0A42.288,42.288,0,0,1,84.646,42.252V162.606A42.288,42.288,0,0,1,42.323,204.858Z" transform="translate(147.242 414.695)" fill="none" stroke="#fec53d" stroke-linecap="round" stroke-linejoin="round" stroke-miterlimit="10" stroke-width="10.947"/>
          <path id="Shape-26" data-name="Shape" d="M0,96.383V32.838A32.958,32.958,0,0,1,33.076,0h0A32.958,32.958,0,0,1,66.152,32.838V159.927a32.958,32.958,0,0,1-33.076,32.838h0A32.958,32.958,0,0,1,0,159.927V144.574" transform="translate(588.967 469.466)" fill="none" stroke="#fb4376" stroke-linecap="round" stroke-linejoin="round" stroke-miterlimit="10" stroke-width="10.947"/>
          <path id="Shape-27" data-name="Shape" d="M114.521,225.436v5.54a57.183,57.183,0,0,1-57.261,57.106h0A57.183,57.183,0,0,1,0,230.977V57.1A57.183,57.183,0,0,1,57.261,0h0a57.183,57.183,0,0,1,57.261,57.1v1.707" transform="translate(535.618 0.711)" fill="none" stroke="#fec53d" stroke-linecap="round" stroke-linejoin="round" stroke-miterlimit="10" stroke-width="10.947"/>
          <path id="Shape-28" data-name="Shape" d="M47.48,0H44.058A44.079,44.079,0,0,0,0,44.1H0A44.079,44.079,0,0,0,44.058,88.2h101.8A44.079,44.079,0,0,0,189.92,44.1h0A44.079,44.079,0,0,0,145.862,0H142.44" transform="translate(3.557 677.17)" fill="none" stroke="#fec53d" stroke-linecap="round" stroke-linejoin="round" stroke-miterlimit="10" stroke-width="10.947"/>
          <path id="Shape-29" data-name="Shape" d="M0,0V164.766c0,49.248,40.286,89.172,89.981,89.172s89.981-39.924,89.981-89.172V125.838" transform="translate(534.196 469.466)" fill="none" stroke="#20e09c" stroke-linecap="round" stroke-linejoin="round" stroke-miterlimit="10" stroke-width="10.947"/>
          <path id="Shape-30" data-name="Shape" d="M0,0H147.811c56.256,0,101.86,45.859,101.86,102.429s-45.6,102.429-101.86,102.429H103.345" transform="translate(353.522 748.301)" fill="none" stroke="#20e09c" stroke-linecap="round" stroke-linejoin="round" stroke-miterlimit="10" stroke-width="10.947"/>
          <path id="Shape-31" data-name="Shape" d="M77.509,85.358H42.521A42.679,42.679,0,1,1,42.521,0H112.5a42.613,42.613,0,0,1,42.546,42.679V46.47a38.827,38.827,0,0,1-38.767,38.887" transform="translate(339.321 413.273)" fill="none" stroke="#2ecfca" stroke-linecap="round" stroke-linejoin="round" stroke-miterlimit="10" stroke-width="10.947"/>
          <path id="Shape-32" data-name="Shape" d="M88.558,91.759h39.962c26.837,0,48.6-20.541,48.6-45.88S155.358,0,128.521,0H48.6C21.757,0,0,20.541,0,45.88" transform="translate(686.417 243.98)" fill="none" stroke="#20e09c" stroke-linecap="round" stroke-linejoin="round" stroke-miterlimit="10" stroke-width="10.947"/>
          <path id="Shape-33" data-name="Shape" d="M205.569,0h-95.8C49.145,0,0,49.365,0,110.253" transform="translate(274.567 144.396)" fill="none" stroke="#20e09c" stroke-linecap="round" stroke-linejoin="round" stroke-miterlimit="10" stroke-width="10.947"/>
          <path id="Shape-34" data-name="Shape" d="M40.9,223.95A40.6,40.6,0,1,1,0,264.551V0" transform="translate(990.147 634.491)" fill="none" stroke="#fb4376" stroke-linecap="round" stroke-linejoin="round" stroke-miterlimit="10" stroke-width="10.947"/>
          <path id="Shape-35" data-name="Shape" d="M0,75.4C0,33.758,33.323,0,74.428,0H205.569" transform="translate(724.828 809.474)" fill="none" stroke="#20e09c" stroke-linecap="round" stroke-linejoin="round" stroke-miterlimit="10" stroke-width="10.947"/>
          <path id="Shape-36" data-name="Shape" d="M0,85.358H69.974A85.225,85.225,0,0,0,155.066,0" transform="translate(531.35 327.915)" fill="none" stroke="#2ecfca" stroke-linecap="round" stroke-linejoin="round" stroke-miterlimit="10" stroke-width="10.947"/>
          <path id="Shape-37" data-name="Shape" d="M124.48,0V38.237a69.894,69.894,0,0,1-69.9,69.883H0" transform="translate(815.164 635.913)" fill="none" stroke="#2ecfca" stroke-linecap="round" stroke-linejoin="round" stroke-miterlimit="10" stroke-width="10.947"/>
          <path id="Shape-38" data-name="Shape" d="M137.995,0H78.239C35.026,0,0,35.352,0,78.956" transform="translate(933.953 445.282)" fill="none" stroke="#fe885d" stroke-linecap="round" stroke-linejoin="round" stroke-miterlimit="10" stroke-width="10.947"/>
          <path id="Shape-39" data-name="Shape" d="M0,141.551V76.738C0,39.42,29.146,8.159,68.286,0" transform="translate(155.066 862.822)" fill="none" stroke="#20e09c" stroke-linecap="round" stroke-linejoin="round" stroke-miterlimit="10" stroke-width="10.947"/>
          <path id="Shape-40" data-name="Shape" d="M.421,0V130.882" transform="translate(31.232 231.888)" fill="none" stroke="#20e09c" stroke-linecap="round" stroke-linejoin="round" stroke-miterlimit="10" stroke-width="10.947"/>
          <path id="Shape-41" data-name="Shape" d="M.421,0V108.12" transform="translate(773.843 532.773)" fill="none" stroke="#20e09c" stroke-linecap="round" stroke-linejoin="round" stroke-miterlimit="10" stroke-width="10.947"/>
          <path id="Shape-42" data-name="Shape" d="M.421,0V44.1" transform="translate(664.301 826.545)" fill="none" stroke="#20e09c" stroke-linecap="round" stroke-linejoin="round" stroke-miterlimit="10" stroke-width="10.947"/>
          <path id="Shape-43" data-name="Shape" d="M147.242,34.087V48.512a36.9,36.9,0,0,1-36.948,36.846h0A36.9,36.9,0,0,1,73.336,48.512V36.561A36.617,36.617,0,0,0,36.673,0h0A36.618,36.618,0,0,0,0,36.561V51.271" transform="translate(906.212 243.269)" fill="none" stroke="#fb4376" stroke-linecap="round" stroke-linejoin="round" stroke-miterlimit="10" stroke-width="10.947"/>
          <path id="Shape-44" data-name="Shape" d="M0,51.9A51.916,51.916,0,0,1,51.926,0h0a51.919,51.919,0,0,1,51.926,51.911V89.65a51.917,51.917,0,0,1-51.926,51.9h0A51.918,51.918,0,0,1,0,89.639Z" transform="translate(774.619 862.822)" fill="none" stroke="#2ecfca" stroke-linecap="round" stroke-linejoin="round" stroke-miterlimit="10" stroke-width="10.947"/>
          <g id="Group_30" data-name="Group 30" transform="translate(220.457 418.252)">
            <path id="Shape-45" data-name="Shape" d="M0,0V45.727A100.792,100.792,0,0,0,100.735,146.577h40.122a60.691,60.691,0,0,1,60.613,60.682h0" transform="translate(64.61)" fill="none" stroke="#fe885d" stroke-linecap="round" stroke-linejoin="round" stroke-miterlimit="10" stroke-width="10.947"/>
            <path id="Shape-46" data-name="Shape" d="M185.888,0H58.252a57.944,57.944,0,1,0,0,115.887h52.679" transform="translate(80.193 268.546)" fill="none" stroke="#fe885d" stroke-linecap="round" stroke-linejoin="round" stroke-miterlimit="10" stroke-width="10.947"/>
            <path id="Shape-47" data-name="Shape" d="M48.246,141.516H40.635a40.694,40.694,0,1,1,0-81.388h90.751A60.092,60.092,0,0,0,191.444,0" transform="translate(0.059 444.605)" fill="none" stroke="#fe885d" stroke-linecap="round" stroke-linejoin="round" stroke-miterlimit="10" stroke-width="10.947"/>
          </g>
        </g>
      </g>
      <g id="Mask_Group_21" data-name="Mask Group 21" transform="translate(1113 1940) rotate(180)" clip-path="url(#clip-path-2)">
        <g id="Taieri-2" data-name="Taieri" transform="translate(-12.656 16.388)">
          <path id="Shape-48" data-name="Shape" d="M81.8,0A40.9,40.9,0,1,1,0,0" transform="translate(1056.299 710.601)" fill="none" stroke="#20e09c" stroke-linecap="round" stroke-linejoin="round" stroke-miterlimit="10" stroke-width="10.947"/>
          <path id="Shape-49" data-name="Shape" d="M51.215,103.14A51.571,51.571,0,0,1,51.215,0" transform="translate(1086.886 7.113)" fill="none" stroke="#fb4376" stroke-linecap="round" stroke-linejoin="round" stroke-miterlimit="10" stroke-width="10.947"/>
          <path id="Shape-50" data-name="Shape" d="M0,48.3a42.679,42.679,0,0,0,85.358,0V0" transform="translate(399.758 0.711)" fill="none" stroke="#20e09c" stroke-linecap="round" stroke-linejoin="round" stroke-miterlimit="10" stroke-width="10.947"/>
          <path id="Shape-51" data-name="Shape" d="M96.194,191.343C43.068,191.343,0,148.513,0,95.672S43.068,0,96.194,0H184.23" transform="translate(1.423 813.03)" fill="none" stroke="#fec53d" stroke-linecap="round" stroke-linejoin="round" stroke-miterlimit="10" stroke-width="10.947"/>
          <path id="Shape-52" data-name="Shape" d="M31.995,61.884C14.324,61.884,0,48.032,0,30.942S14.324,0,31.995,0H66.152" transform="translate(59.75 877.048)" fill="none" stroke="#20e09c" stroke-linecap="round" stroke-linejoin="round" stroke-miterlimit="10" stroke-width="10.947"/>
          <path id="Shape-53" data-name="Shape" d="M189.209,0H49.527C22.174,0,0,21.656,0,48.369" transform="translate(0 0.711)" fill="none" stroke="#20e09c" stroke-linecap="round" stroke-linejoin="round" stroke-miterlimit="10" stroke-width="10.947"/>
          <path id="Shape-54" data-name="Shape" d="M0,0H179.067a63.4,63.4,0,0,1,63.491,63.307" transform="translate(795.247 2.134)" fill="none" stroke="#2ecfca" stroke-linecap="round" stroke-linejoin="round" stroke-miterlimit="10" stroke-width="10.947"/>
          <path id="Shape-55" data-name="Shape" d="M85.358,162.406V42.679A42.679,42.679,0,1,0,0,42.679V61.211" transform="translate(1052.743 166.22)" fill="none" stroke="#fe885d" stroke-linecap="round" stroke-linejoin="round" stroke-miterlimit="10" stroke-width="10.947"/>
          <circle id="Shape-56" data-name="Shape" cx="28.453" cy="28.453" r="28.453" transform="translate(389.799 251.093)" fill="none" stroke="#20e09c" stroke-linecap="round" stroke-linejoin="round" stroke-miterlimit="10" stroke-width="10.947"/>
          <ellipse id="Shape-57" data-name="Shape" cx="41.256" cy="40.9" rx="41.256" ry="40.9" transform="translate(455.24 809.474)" fill="none" stroke="#fb4376" stroke-linecap="round" stroke-linejoin="round" stroke-miterlimit="10" stroke-width="10.947"/>
          <circle id="Shape-58" data-name="Shape" cx="44.813" cy="44.813" r="44.813" transform="translate(86.069 137.995)" fill="none" stroke="#20e09c" stroke-linecap="round" stroke-linejoin="round" stroke-miterlimit="10" stroke-width="10.947"/>
          <path id="Shape-59" data-name="Shape" d="M99.939,197.034c55.2,0,99.939-44.107,99.939-98.517S155.137,0,99.939,0,0,44.107,0,98.517" transform="translate(31.298 83.224)" fill="none" stroke="#fec53d" stroke-linecap="round" stroke-linejoin="round" stroke-miterlimit="10" stroke-width="10.947"/>
          <path id="Shape-60" data-name="Shape" d="M3.706,75.724C-11.478,132.5,21.369,190.641,77.068,205.6s113.17-18.956,128.351-75.728S187.757,14.954,132.058,0" transform="translate(928.974 795.247)" fill="none" stroke="#20e09c" stroke-linecap="round" stroke-linejoin="round" stroke-miterlimit="10" stroke-width="10.947"/>
          <path id="Shape-61" data-name="Shape" d="M40.9,0A40.9,40.9,0,1,0,81.8,40.9V0" transform="translate(192.766 294.483)" fill="none" stroke="#20e09c" stroke-linecap="round" stroke-linejoin="round" stroke-miterlimit="10" stroke-width="10.947"/>
          <path id="Shape-62" data-name="Shape" d="M0,54.415A54.061,54.061,0,1,0,54.06,0H0" transform="translate(246.114 0.711)" fill="none" stroke="#fb4376" stroke-linecap="round" stroke-linejoin="round" stroke-miterlimit="10" stroke-width="10.947"/>
          <path id="Shape-63" data-name="Shape" d="M47.3,93.6C21.178,93.6,0,72.644,0,46.8S21.178,0,47.3,0,94.6,20.952,94.6,46.8V189.92" transform="translate(3.557 522.815)" fill="none" stroke="#20e09c" stroke-linecap="round" stroke-linejoin="round" stroke-miterlimit="10" stroke-width="10.947"/>
          <path id="Shape-64" data-name="Shape" d="M100.287,43.39c0,23.963,19.114,43.39,42.687,43.39s42.679-19.427,42.679-43.39S166.547,0,142.974,0H0" transform="translate(939.644 575.452)" fill="none" stroke="#20e09c" stroke-linecap="round" stroke-linejoin="round" stroke-miterlimit="10" stroke-width="10.947"/>
          <path id="Shape-65" data-name="Shape" d="M45.524,99.435C20.382,99.435,0,119.532,0,144.319s20.382,44.89,45.524,44.89,45.524-20.1,45.524-44.884V0" transform="translate(641.604)" fill="none" stroke="#2ecfca" stroke-linecap="round" stroke-linejoin="round" stroke-miterlimit="10" stroke-width="10.947"/>
          <path id="Shape-66" data-name="Shape" d="M24.127,41.256A40.931,40.931,0,1,1,65.056,82.512H0" transform="translate(626.666 921.861)" fill="none" stroke="#20e09c" stroke-linecap="round" stroke-linejoin="round" stroke-miterlimit="10" stroke-width="10.947"/>
          <path id="Shape-67" data-name="Shape" d="M40.9,111.376A40.7,40.7,0,1,1,0,152.071V0" transform="translate(734.075 288.793)" fill="none" stroke="#fe885d" stroke-linecap="round" stroke-linejoin="round" stroke-miterlimit="10" stroke-width="10.947"/>
          <path id="Shape-68" data-name="Shape" d="M40.9,124.272c-22.588,0-40.9,18.04-40.9,40.293s18.312,40.293,40.9,40.293,40.9-18.04,40.9-40.293V0" transform="translate(3.557 280.257)" fill="none" stroke="#fe885d" stroke-linecap="round" stroke-linejoin="round" stroke-miterlimit="10" stroke-width="10.947"/>
          <path id="Shape-69" data-name="Shape" d="M144.183,73.265C144.183,32.8,111.906,0,72.09,0S0,32.8,0,73.265,32.277,146.53,72.093,146.53H261.052" transform="translate(345.698 206.992)" fill="none" stroke="#fec53d" stroke-linecap="round" stroke-linejoin="round" stroke-miterlimit="10" stroke-width="10.947"/>
          <path id="Shape-70" data-name="Shape" d="M188.955,146.53c39.824,0,72.1-32.8,72.1-73.265S228.779,0,188.955,0H0" transform="translate(877.048 370.594)" fill="none" stroke="#20e09c" stroke-linecap="round" stroke-linejoin="round" stroke-miterlimit="10" stroke-width="10.947"/>
          <path id="Shape-71" data-name="Shape" d="M0,68.642C0,30.729,30.4,0,67.9,0h69.763c37.5,0,67.9,30.729,67.9,68.642h0c0,37.913-30.4,68.642-67.9,68.642H67.9C30.4,137.283,0,106.555,0,68.642Z" transform="translate(787.423 56.194)" fill="none" stroke="#fe885d" stroke-linecap="round" stroke-linejoin="round" stroke-miterlimit="10" stroke-width="10.947"/>
          <path id="Shape-72" data-name="Shape" d="M42.323,204.858A42.288,42.288,0,0,1,0,162.606V42.252A42.288,42.288,0,0,1,42.323,0h0A42.288,42.288,0,0,1,84.646,42.252V162.606A42.288,42.288,0,0,1,42.323,204.858Z" transform="translate(147.242 414.695)" fill="none" stroke="#fec53d" stroke-linecap="round" stroke-linejoin="round" stroke-miterlimit="10" stroke-width="10.947"/>
          <path id="Shape-73" data-name="Shape" d="M0,96.383V32.839A32.958,32.958,0,0,1,33.076,0h0A32.958,32.958,0,0,1,66.152,32.839V159.927a32.958,32.958,0,0,1-33.076,32.838h0A32.958,32.958,0,0,1,0,159.927V144.575" transform="translate(588.967 469.466)" fill="none" stroke="#fb4376" stroke-linecap="round" stroke-linejoin="round" stroke-miterlimit="10" stroke-width="10.947"/>
          <path id="Shape-74" data-name="Shape" d="M114.521,225.436v5.54a57.183,57.183,0,0,1-57.261,57.106h0A57.183,57.183,0,0,1,0,230.977V57.1A57.183,57.183,0,0,1,57.261,0h0a57.183,57.183,0,0,1,57.261,57.1v1.707" transform="translate(535.618 0.711)" fill="none" stroke="#fec53d" stroke-linecap="round" stroke-linejoin="round" stroke-miterlimit="10" stroke-width="10.947"/>
          <path id="Shape-75" data-name="Shape" d="M47.48,0H44.058A44.079,44.079,0,0,0,0,44.1H0A44.079,44.079,0,0,0,44.058,88.2h101.8a44.079,44.079,0,0,0,44.058-44.1h0A44.079,44.079,0,0,0,145.863,0H142.44" transform="translate(3.557 677.17)" fill="none" stroke="#fec53d" stroke-linecap="round" stroke-linejoin="round" stroke-miterlimit="10" stroke-width="10.947"/>
          <path id="Shape-76" data-name="Shape" d="M0,0V164.766c0,49.248,40.286,89.172,89.981,89.172s89.981-39.924,89.981-89.172V125.838" transform="translate(534.196 469.466)" fill="none" stroke="#20e09c" stroke-linecap="round" stroke-linejoin="round" stroke-miterlimit="10" stroke-width="10.947"/>
          <path id="Shape-77" data-name="Shape" d="M0,0H147.811c56.256,0,101.86,45.859,101.86,102.429s-45.6,102.429-101.86,102.429H103.345" transform="translate(353.522 748.301)" fill="none" stroke="#20e09c" stroke-linecap="round" stroke-linejoin="round" stroke-miterlimit="10" stroke-width="10.947"/>
          <path id="Shape-78" data-name="Shape" d="M77.666,85.358H42.679A42.679,42.679,0,1,1,42.679,0h69.974A42.613,42.613,0,0,1,155.2,42.679V46.47a38.827,38.827,0,0,1-38.767,38.887" transform="translate(339.163 413.273)" fill="none" stroke="#2ecfca" stroke-linecap="round" stroke-linejoin="round" stroke-miterlimit="10" stroke-width="10.947"/>
          <path id="Shape-79" data-name="Shape" d="M88.558,91.759h39.962c26.837,0,48.6-20.541,48.6-45.88S155.358,0,128.521,0H48.6C21.757,0,0,20.541,0,45.88" transform="translate(686.417 243.98)" fill="none" stroke="#20e09c" stroke-linecap="round" stroke-linejoin="round" stroke-miterlimit="10" stroke-width="10.947"/>
          <path id="Shape-80" data-name="Shape" d="M205.569,0h-95.8C49.145,0,0,49.365,0,110.253" transform="translate(274.567 144.396)" fill="none" stroke="#20e09c" stroke-linecap="round" stroke-linejoin="round" stroke-miterlimit="10" stroke-width="10.947"/>
          <path id="Shape-81" data-name="Shape" d="M40.9,223.95A40.6,40.6,0,1,1,0,264.551V0" transform="translate(990.147 634.491)" fill="none" stroke="#fb4376" stroke-linecap="round" stroke-linejoin="round" stroke-miterlimit="10" stroke-width="10.947"/>
          <path id="Shape-82" data-name="Shape" d="M0,75.4C0,33.758,33.323,0,74.428,0H205.569" transform="translate(724.828 809.474)" fill="none" stroke="#20e09c" stroke-linecap="round" stroke-linejoin="round" stroke-miterlimit="10" stroke-width="10.947"/>
          <path id="Shape-83" data-name="Shape" d="M0,85.358H69.974A85.225,85.225,0,0,0,155.066,0" transform="translate(531.35 327.915)" fill="none" stroke="#2ecfca" stroke-linecap="round" stroke-linejoin="round" stroke-miterlimit="10" stroke-width="10.947"/>
          <path id="Shape-84" data-name="Shape" d="M124.48,0V38.237a69.894,69.894,0,0,1-69.9,69.883H0" transform="translate(815.164 635.913)" fill="none" stroke="#2ecfca" stroke-linecap="round" stroke-linejoin="round" stroke-miterlimit="10" stroke-width="10.947"/>
          <path id="Shape-85" data-name="Shape" d="M137.995,0H78.239C35.026,0,0,35.352,0,78.956" transform="translate(933.953 445.282)" fill="none" stroke="#fe885d" stroke-linecap="round" stroke-linejoin="round" stroke-miterlimit="10" stroke-width="10.947"/>
          <path id="Shape-86" data-name="Shape" d="M0,141.551V76.738C0,39.42,29.146,8.159,68.286,0" transform="translate(155.066 862.822)" fill="none" stroke="#20e09c" stroke-linecap="round" stroke-linejoin="round" stroke-miterlimit="10" stroke-width="10.947"/>
          <path id="Shape-87" data-name="Shape" d="M0,0V130.882" transform="translate(31.653 231.888)" fill="none" stroke="#20e09c" stroke-linecap="round" stroke-linejoin="round" stroke-miterlimit="10" stroke-width="10.947"/>
          <path id="Shape-88" data-name="Shape" d="M0,0V108.12" transform="translate(774.264 532.773)" fill="none" stroke="#20e09c" stroke-linecap="round" stroke-linejoin="round" stroke-miterlimit="10" stroke-width="10.947"/>
          <path id="Shape-89" data-name="Shape" d="M0,0V44.1" transform="translate(664.722 826.545)" fill="none" stroke="#20e09c" stroke-linecap="round" stroke-linejoin="round" stroke-miterlimit="10" stroke-width="10.947"/>
          <path id="Shape-90" data-name="Shape" d="M147.242,34.087V48.512a36.9,36.9,0,0,1-36.948,36.846h0A36.9,36.9,0,0,1,73.336,48.512V36.562A36.617,36.617,0,0,0,36.673,0h0A36.618,36.618,0,0,0,0,36.562V51.271" transform="translate(906.212 243.269)" fill="none" stroke="#fb4376" stroke-linecap="round" stroke-linejoin="round" stroke-miterlimit="10" stroke-width="10.947"/>
          <path id="Shape-91" data-name="Shape" d="M0,51.9A51.916,51.916,0,0,1,51.926,0h0a51.919,51.919,0,0,1,51.926,51.911V89.65a51.917,51.917,0,0,1-51.926,51.9h0A51.918,51.918,0,0,1,0,89.639Z" transform="translate(774.619 862.822)" fill="none" stroke="#2ecfca" stroke-linecap="round" stroke-linejoin="round" stroke-miterlimit="10" stroke-width="10.947"/>
          <g id="Group_30-2" data-name="Group 30" transform="translate(220.457 418.252)">
            <path id="Shape-92" data-name="Shape" d="M0,0V45.727A100.792,100.792,0,0,0,100.735,146.577h40.122a60.691,60.691,0,0,1,60.613,60.682h0" transform="translate(64.61)" fill="none" stroke="#fe885d" stroke-linecap="round" stroke-linejoin="round" stroke-miterlimit="10" stroke-width="10.947"/>
            <path id="Shape-93" data-name="Shape" d="M185.888,0H58.252a57.944,57.944,0,1,0,0,115.887h52.679" transform="translate(80.193 268.546)" fill="none" stroke="#fe885d" stroke-linecap="round" stroke-linejoin="round" stroke-miterlimit="10" stroke-width="10.947"/>
            <path id="Shape-94" data-name="Shape" d="M48.305,141.516H40.694a40.694,40.694,0,0,1,0-81.388h90.751A60.092,60.092,0,0,0,191.5,0" transform="translate(0 444.605)" fill="none" stroke="#fe885d" stroke-linecap="round" stroke-linejoin="round" stroke-miterlimit="10" stroke-width="10.947"/>
          </g>
        </g>
      </g>
    </g>
  </g>
</svg>
